<svg width="65" height="65" viewBox="0 0 65 65" fill="none" xmlns="http://www.w3.org/2000/svg">
<path d="M50.0477 30.7589L50.5556 39.6739C50.6308 40.9716 49.8596 42.1753 48.2422 43.2849C46.6247 44.3946 44.4148 45.2739 41.6124 45.9228C38.81 46.5716 35.7726 46.8961 32.5 46.8961C29.2274 46.8961 26.19 46.5716 23.3876 45.9228C20.5852 45.2739 18.3753 44.3946 16.7578 43.2849C15.1403 42.1753 14.3692 40.9716 14.4444 39.6739L14.9522 30.7589L31.1458 35.8653C31.5596 35.9969 32.011 36.0627 32.5 36.0627C32.989 36.0627 33.4404 35.9969 33.8542 35.8653L50.0477 30.7589ZM65 21.6183C65 22.0509 64.7931 22.3424 64.3793 22.4929L32.7821 32.4235C32.7069 32.4423 32.6129 32.4517 32.5 32.4517C32.3871 32.4517 32.2931 32.4423 32.2179 32.4235L13.8238 26.6118C13.0151 27.2513 12.3474 28.2998 11.8208 29.7574C11.2941 31.2151 10.9744 32.8937 10.8615 34.7932C12.0464 35.4703 12.6389 36.4953 12.6389 37.8683C12.6389 39.1661 12.0935 40.1723 11.0026 40.887L12.6388 53.1027C12.6765 53.366 12.6012 53.6011 12.4131 53.8079C12.2439 54.0148 12.0182 54.1183 11.7361 54.1183H6.31944C6.03733 54.1183 5.81165 54.0148 5.64238 53.8079C5.45429 53.6011 5.37905 53.366 5.41665 53.1027L7.05294 40.8869C5.96211 40.1723 5.41669 39.166 5.41669 37.8683C5.41669 36.4953 6.02794 35.4515 7.25044 34.7368C7.45731 30.8436 8.37889 27.7403 10.0152 25.4269L0.620656 22.4929C0.206885 22.3424 0 22.0509 0 21.6183C0 21.1857 0.206885 20.8942 0.620656 20.7437L32.2179 10.8131C32.2931 10.7943 32.3871 10.7849 32.5 10.7849C32.6129 10.7849 32.7069 10.7943 32.7821 10.8131L64.3793 20.7437C64.7931 20.8942 65 21.1857 65 21.6183Z" fill="#B6ADFF"/>
</svg>
